<?xml version="1.0" encoding="UTF-8"?>
<svg width="79px" height="67px" viewBox="0 0 79 67" version="1.1" xmlns="http://www.w3.org/2000/svg" xmlns:xlink="http://www.w3.org/1999/xlink">
    <!-- Generator: Sketch 52.5 (67469) - http://www.bohemiancoding.com/sketch -->
    <title>robotics</title>
    <desc>Created with Sketch.</desc>
    <g id="Page-1" stroke="none" stroke-width="1" fill="none" fill-rule="evenodd">
        <g id="Artboard" transform="translate(-172.000000, -609.000000)">
            <g id="robotics" transform="translate(173.000000, 611.000000)">
                <path d="M56.021,63.2166 L20.616,63.2166 C13.78,63.2166 8.238,57.6746 8.238,50.8386 L8.238,27.0776 C8.238,20.2416 13.78,14.6996 20.616,14.6996 L56.021,14.6996 C62.857,14.6996 68.398,20.2416 68.398,27.0776 L68.398,50.8386 C68.398,57.6746 62.857,63.2166 56.021,63.2166" id="Fill-59" fill="#558093"></path>
                <path d="M56.021,63.2166 L20.616,63.2166 C13.78,63.2166 8.238,57.6746 8.238,50.8386 L8.238,27.0776 C8.238,20.2416 13.78,14.6996 20.616,14.6996 L56.021,14.6996 C62.857,14.6996 68.398,20.2416 68.398,27.0776 L68.398,50.8386 C68.398,57.6746 62.857,63.2166 56.021,63.2166 Z" id="Stroke-60" stroke="#231F20" stroke-width="3"></path>
                <path d="M30.2373,34.324 C30.2373,37.445 27.7073,39.974 24.5863,39.974 C21.4653,39.974 18.9353,37.445 18.9353,34.324 C18.9353,31.203 21.4653,28.673 24.5863,28.673 C27.7073,28.673 30.2373,31.203 30.2373,34.324" id="Fill-61" fill="#D1D1D1"></path>
                <path d="M30.2373,34.324 C30.2373,37.445 27.7073,39.974 24.5863,39.974 C21.4653,39.974 18.9353,37.445 18.9353,34.324 C18.9353,31.203 21.4653,28.673 24.5863,28.673 C27.7073,28.673 30.2373,31.203 30.2373,34.324 Z" id="Stroke-62" stroke="#000000" stroke-width="3" stroke-linecap="round" stroke-linejoin="round"></path>
                <path d="M58.6416,34.324 C58.6416,37.445 56.1116,39.974 52.9906,39.974 C49.8696,39.974 47.3396,37.445 47.3396,34.324 C47.3396,31.203 49.8696,28.673 52.9906,28.673 C56.1116,28.673 58.6416,31.203 58.6416,34.324" id="Fill-63" fill="#D1D1D1"></path>
                <path d="M58.6416,34.324 C58.6416,37.445 56.1116,39.974 52.9906,39.974 C49.8696,39.974 47.3396,37.445 47.3396,34.324 C47.3396,31.203 49.8696,28.673 52.9906,28.673 C56.1116,28.673 58.6416,31.203 58.6416,34.324 Z" id="Stroke-64" stroke="#000000" stroke-width="3" stroke-linecap="round" stroke-linejoin="round"></path>
                <path d="M32.4097,52.8816 L44.7817,52.8816" id="Stroke-65" stroke="#231F20" stroke-width="3" stroke-linecap="round" stroke-linejoin="round"></path>
                <path d="M41.4111,3.2498 C41.4111,4.9578 40.0261,6.3428 38.3181,6.3428 C36.6101,6.3428 35.2251,4.9578 35.2251,3.2498 C35.2251,1.5418 36.6101,0.1568 38.3181,0.1568 C40.0261,0.1568 41.4111,1.5418 41.4111,3.2498" id="Fill-66" fill="#D1D1D1"></path>
                <path d="M41.4111,3.2498 C41.4111,4.9578 40.0261,6.3428 38.3181,6.3428 C36.6101,6.3428 35.2251,4.9578 35.2251,3.2498 C35.2251,1.5418 36.6101,0.1568 38.3181,0.1568 C40.0261,0.1568 41.4111,1.5418 41.4111,3.2498 Z" id="Stroke-67" stroke="#000000" stroke-width="3" stroke-linecap="round" stroke-linejoin="round"></path>
                <path d="M38.3184,13.5896 L38.3184,6.4876" id="Stroke-68" stroke="#231F20" stroke-width="3" stroke-linecap="round" stroke-linejoin="round"></path>
                <g id="Group-71" transform="translate(69.000000, 32.000000)">
                    <path d="M0.457,0.2742 C4.149,0.2742 7.142,3.2662 7.142,6.9592 C7.142,10.6502 4.149,13.6422 0.457,13.6422" id="Fill-69" fill="#D1D1D1"></path>
                    <path d="M0.457,0.2742 C4.149,0.2742 7.142,3.2662 7.142,6.9592 C7.142,10.6502 4.149,13.6422 0.457,13.6422" id="Stroke-70" stroke="#000000" stroke-width="3" stroke-linecap="round" stroke-linejoin="round"></path>
                </g>
                <g id="Group-74" transform="translate(0.000000, 32.000000)">
                    <path d="M7.208,13.6423 C3.516,13.6423 0.523,10.6503 0.523,6.9583 C0.523,3.2663 3.516,0.2743 7.208,0.2743" id="Fill-72" fill="#D1D1D1"></path>
                    <path d="M7.208,13.6423 C3.516,13.6423 0.523,10.6503 0.523,6.9583 C0.523,3.2663 3.516,0.2743 7.208,0.2743" id="Stroke-73" stroke="#000000" stroke-width="3" stroke-linecap="round" stroke-linejoin="round"></path>
                </g>
            </g>
        </g>
    </g>
</svg>